<?xml version="1.0" standalone="no"?>
<!DOCTYPE svg PUBLIC "-//W3C//DTD SVG 20010904//EN"
 "http://www.w3.org/TR/2001/REC-SVG-20010904/DTD/svg10.dtd">
<svg version="1.0" xmlns="http://www.w3.org/2000/svg"
 width="500.000000pt" height="500.000000pt" viewBox="0 0 500.000000 500.000000"
 preserveAspectRatio="xMidYMid meet">
<metadata>
Created by potrace 1.11, written by Peter Selinger 2001-2013
</metadata>
<g transform="translate(0.000000,500.000000) scale(0.100000,-0.100000)"
fill="#000000" stroke="none">
<path d="M1103 4962 c-62 -50 -141 -127 -175 -172 -33 -45 -168 -311 -168
-332 0 -8 -8 -35 -19 -59 -10 -24 -26 -87 -36 -139 -9 -52 -21 -117 -26 -145
-5 -27 -16 -93 -24 -145 -9 -52 -21 -115 -27 -140 -17 -77 -36 -221 -43 -320
-3 -52 -8 -111 -10 -130 -4 -33 -10 -151 -20 -370 -3 -52 -8 -216 -11 -365 -6
-243 -4 -288 15 -445 12 -96 27 -193 33 -215 6 -22 12 -58 14 -80 3 -22 9 -62
14 -90 8 -44 14 -102 25 -228 8 -99 26 -241 38 -302 42 -213 174 -556 260
-679 68 -96 195 -214 282 -261 142 -77 322 -136 511 -166 91 -15 352 -19 422
-7 278 48 372 63 500 79 100 12 112 6 112 -56 0 -24 6 -56 13 -72 12 -31 58
-75 89 -86 11 -4 15 -12 12 -22 -6 -13 104 -15 1055 -15 l1061 0 -2 2498 -3
2497 -1922 3 -1921 2 -49 -38z m2001 -932 c-169 -87 -359 -268 -394 -376 -20
-60 7 -90 30 -33 7 17 18 36 24 42 6 7 33 38 60 70 87 103 274 221 427 271
184 59 197 61 442 42 l222 -18 36 -42 c51 -58 143 -194 205 -301 l52 -90 -101
-97 c-63 -62 -108 -98 -121 -98 -12 1 -41 19 -65 41 -24 22 -36 36 -26 33 19
-8 19 -6 -14 45 -8 13 -16 31 -17 40 -7 49 -157 121 -252 121 -62 0 -181 -20
-227 -38 -61 -24 -149 -86 -189 -134 -58 -67 -124 -187 -142 -258 -21 -83 -15
-228 10 -242 9 -5 16 -18 16 -28 0 -11 4 -20 8 -20 5 0 14 -16 22 -35 8 -19
18 -31 24 -28 6 4 -16 -18 -49 -48 -122 -111 -177 -176 -170 -199 3 -10 29
-53 56 -95 28 -42 49 -78 47 -79 -1 -1 -29 -15 -61 -30 -74 -36 -150 -96 -183
-146 -27 -40 -44 -51 -44 -28 0 19 -80 201 -96 217 -12 13 -26 11 -109 -17
-53 -18 -100 -32 -105 -32 -5 0 -42 32 -82 70 -106 102 -213 145 -338 135
-190 -15 -351 -142 -414 -327 -27 -78 -34 -173 -17 -206 5 -9 12 -26 16 -37 5
-15 8 -17 15 -6 4 8 6 20 3 28 -3 7 0 13 6 13 14 0 48 -66 56 -112 6 -31 3
-38 -22 -57 -15 -12 -51 -44 -79 -72 -39 -37 -54 -46 -62 -37 -5 7 -31 60 -57
118 -26 58 -68 150 -95 205 -143 299 -143 298 -135 415 14 220 79 573 120 653
36 71 129 190 183 235 142 118 325 166 533 138 l66 -8 7 48 c7 54 63 156 137
249 66 83 116 129 173 159 l49 26 349 0 349 0 -77 -40z m1266 -370 c-11 -40
-34 -69 -109 -137 -36 -32 -89 -81 -120 -109 l-55 -52 51 -113 c28 -63 63
-141 76 -174 14 -33 43 -98 65 -145 59 -129 59 -123 12 -169 -56 -54 -163
-140 -235 -189 -186 -125 -510 -289 -651 -328 -121 -34 -107 -40 -227 94 -59
66 -107 123 -107 127 0 4 -15 25 -34 48 -18 23 -48 65 -65 94 -34 56 -33 76 8
105 10 7 47 39 82 70 87 76 105 92 206 176 57 47 63 50 56 24 -2 -10 -26 -33
-54 -51 -27 -19 -49 -38 -49 -42 0 -4 -8 -10 -17 -13 -10 -4 -38 -24 -63 -46
-25 -22 -68 -59 -97 -82 -29 -24 -55 -51 -58 -60 -10 -29 47 -126 164 -277 35
-46 82 -96 103 -111 22 -16 34 -31 28 -35 -21 -13 1 -24 38 -18 68 11 435 181
547 253 17 11 36 23 44 27 23 10 263 173 304 205 20 16 37 34 37 40 0 6 -15
-1 -32 -16 -18 -14 -64 -49 -103 -76 -38 -27 -74 -53 -80 -58 -22 -18 -125
-82 -200 -124 -164 -93 -211 -114 -448 -198 l-77 -28 -81 91 c-74 84 -219 286
-219 306 0 8 23 28 113 100 l39 30 23 -26 22 -27 67 28 c37 16 68 27 70 25 2
-2 11 -20 21 -39 18 -37 73 -108 109 -142 39 -37 116 -69 181 -75 171 -16 402
112 471 261 39 84 30 218 -20 291 -12 17 -21 32 -22 35 0 3 -6 18 -12 33 -7
16 -12 34 -12 41 0 27 -13 22 -50 -17 -35 -38 -42 -41 -85 -39 -26 1 -54 7
-61 13 -21 17 -17 65 6 87 19 18 144 72 165 72 10 0 46 -71 95 -190 15 -36 51
-117 79 -180 29 -63 53 -126 54 -141 1 -16 7 -25 15 -22 6 3 12 8 12 13 0 23
-130 342 -204 500 -34 73 -33 92 12 142 36 40 268 248 276 248 3 0 1 -13 -4
-30z m201 -210 c67 -96 109 -160 109 -166 0 -3 23 -39 50 -81 28 -42 50 -84
50 -94 0 -10 9 -33 20 -52 27 -45 38 -127 18 -127 -8 0 -22 6 -32 13 -15 11
-16 20 -8 65 5 30 6 55 1 58 -5 3 -11 -1 -13 -8 -24 -72 -51 -364 -34 -374 4
-3 7 -39 6 -80 0 -42 4 -79 9 -83 24 -15 22 -332 -1 -411 -9 -30 -16 -65 -16
-79 0 -55 -151 -317 -261 -451 -59 -73 -148 -215 -167 -267 -9 -26 -22 -52
-27 -58 -6 -5 -40 -73 -75 -150 -35 -77 -74 -156 -85 -175 -12 -19 -27 -50
-35 -69 -13 -33 -14 -33 -64 -27 -28 3 -97 6 -154 6 -99 0 -103 1 -112 24 -11
30 -39 46 -77 46 -24 0 -136 -33 -238 -69 -151 -54 -400 -127 -570 -167 -34
-8 -416 -4 -487 5 -144 19 -254 115 -355 311 -52 102 -93 191 -93 204 0 5 -14
25 -32 44 l-31 36 29 13 c16 7 36 12 46 13 9 0 67 21 130 46 290 116 669 354
777 486 35 43 42 59 38 83 -5 29 -47 130 -87 209 l-20 39 42 51 c75 93 150
152 219 173 l37 10 87 -88 c105 -106 132 -118 217 -95 268 70 813 390 932 546
l39 51 -25 62 c-14 34 -47 112 -73 172 -26 61 -55 130 -65 155 -10 25 -30 72
-45 105 l-27 59 26 21 c14 11 47 37 72 58 26 21 47 37 49 35 1 -2 23 -43 50
-93 26 -49 54 -97 62 -106 8 -9 24 -50 36 -90 18 -59 27 -75 44 -77 l21 -3
-24 59 c-45 112 -80 398 -58 479 5 20 13 13 69 -56 34 -43 82 -106 106 -141z
m-507 -339 c9 -10 16 -22 14 -27 -1 -5 6 -41 15 -81 28 -117 1 -201 -90 -289
-71 -69 -212 -124 -318 -124 -88 0 -150 33 -204 109 -22 33 -41 63 -41 69 0 5
39 37 86 70 l86 61 31 -46 c37 -54 102 -93 156 -93 30 0 46 10 95 58 76 73 92
117 70 198 -8 31 -17 60 -19 64 -4 6 78 49 96 50 3 0 14 -8 23 -19z m741 -201
l25 -10 -6 -147 c-7 -176 -20 -343 -28 -351 -11 -10 -19 7 -22 45 -2 21 -8 81
-15 133 -11 100 -4 340 11 340 5 0 20 -4 35 -10z m-2175 -463 c0 -12 27 -74
122 -287 11 -25 30 -67 43 -95 54 -118 75 -176 68 -189 -13 -24 -134 -129
-213 -187 -148 -108 -389 -241 -570 -313 -121 -48 -240 -78 -260 -66 -7 4 4
10 25 13 68 11 480 196 533 239 32 27 -3 14 -99 -36 -102 -53 -260 -120 -369
-156 l-55 -19 -30 33 c-84 91 -189 226 -242 313 l-32 52 65 58 c89 79 93 81
115 52 18 -24 18 -24 48 -6 l30 18 25 -48 c29 -56 87 -115 136 -138 19 -9 49
-24 65 -33 22 -12 58 -16 140 -16 104 0 115 2 179 32 86 40 168 123 186 187
20 72 8 149 -47 310 -23 69 -25 70 -78 36 -55 -35 -90 -39 -117 -14 -24 21
-23 44 3 77 26 33 70 56 107 56 16 0 36 7 43 16 12 15 11 16 -11 10 -20 -5
-21 -4 -5 3 55 25 125 51 138 51 7 0 28 -30 45 -67 57 -122 133 -297 165 -377
30 -77 30 -79 11 -92 -10 -8 -39 -31 -63 -52 -57 -48 -147 -109 -309 -209 -13
-8 -21 -17 -18 -20 2 -3 26 9 51 26 25 17 48 31 49 31 2 0 30 18 62 40 33 23
77 53 99 67 78 51 165 128 165 146 0 18 -37 117 -78 209 -11 23 -36 86 -57
138 -51 129 -83 187 -108 194 -29 7 -173 -52 -332 -137 -135 -72 -301 -179
-419 -272 -38 -30 -73 -52 -78 -49 -14 9 6 28 106 101 50 37 93 71 94 75 2 5
10 8 17 8 7 0 15 4 17 8 5 13 215 137 301 178 82 38 290 112 320 113 9 1 17
-5 17 -12z m418 -9 c17 -17 15 -27 -6 -21 -42 11 -179 -93 -233 -178 -22 -33
-36 -46 -43 -39 -27 27 92 160 191 213 78 42 75 41 91 25z m-585 -340 c38 -89
52 -174 37 -227 -24 -84 -188 -194 -315 -211 -63 -8 -142 4 -160 24 -5 7 -26
21 -45 33 -20 12 -45 32 -57 45 -21 22 -21 24 -5 44 24 29 93 80 120 89 17 5
30 1 45 -13 28 -25 81 -52 103 -52 28 0 162 83 173 108 20 41 24 102 11 142
-12 36 -11 41 11 69 13 16 29 30 35 30 6 1 27 -36 47 -81z m-1005 -283 c19
-40 20 -45 6 -53 -22 -12 -14 -35 48 -129 75 -113 115 -162 256 -310 130 -136
151 -164 152 -198 0 -12 5 -26 12 -33 20 -20 2 -24 -58 -13 -72 14 -201 14
-209 1 -3 -5 26 -10 71 -12 l77 -3 31 -60 c52 -99 99 -167 165 -233 56 -56 60
-62 35 -56 -97 23 -247 93 -277 128 -40 48 -129 202 -129 223 0 13 -6 23 -13
23 -7 0 -23 24 -35 53 -12 28 -33 75 -45 102 -13 28 -30 70 -38 95 -9 25 -32
90 -52 145 -49 136 -95 275 -95 289 0 13 58 86 69 86 4 0 17 -20 29 -45z m82
-30 c-7 -8 -18 -15 -24 -15 -6 0 -2 7 8 15 25 19 32 19 16 0z m83 -207 c25
-38 41 -70 37 -73 -11 -7 -110 127 -103 138 9 14 20 3 66 -65z m171 -201 c28
-18 31 -24 20 -35 -18 -17 -18 -17 -48 23 -31 40 -20 45 28 12z m2563 -194
c28 -27 54 -59 58 -73 4 -14 15 -44 26 -67 10 -24 19 -49 19 -57 0 -8 14 -72
30 -141 17 -69 30 -128 30 -131 0 -2 -8 -4 -17 -5 -14 0 -13 -2 5 -9 12 -5 22
-17 22 -27 0 -10 20 -99 45 -198 25 -99 45 -184 45 -189 0 -4 -39 27 -87 71
-49 43 -112 98 -141 123 -30 24 -57 53 -62 64 -4 12 -11 59 -15 105 l-7 84 38
-7 c22 -3 50 -9 63 -13 16 -4 22 -2 18 4 -4 6 -28 16 -54 23 -27 6 -61 18 -78
25 -16 7 -65 23 -108 36 -43 12 -80 26 -83 31 -3 5 6 30 20 56 15 26 59 113
99 194 39 81 75 148 78 148 3 0 28 -21 56 -47z m-2409 -146 c8 -6 27 -36 43
-66 57 -110 97 -164 115 -157 8 3 11 0 8 -8 -3 -7 16 -32 41 -57 25 -24 45
-47 45 -51 0 -30 -117 22 -175 77 -53 50 -175 239 -175 270 0 14 7 16 43 10
23 -4 48 -12 55 -18z m1987 -235 l81 3 -14 -60 c-8 -35 -14 -116 -15 -193 0
-125 -1 -131 -16 -108 -9 13 -54 66 -100 117 -91 103 -106 130 -117 206 l-6
51 53 -10 c30 -5 90 -8 134 -6z m345 -231 c0 -15 -45 -61 -61 -61 -5 0 3 22
18 49 26 46 42 51 43 12z m-124 -139 c12 -6 24 -26 28 -44 3 -18 27 -86 52
-151 25 -65 44 -120 42 -122 -5 -5 -213 206 -245 247 -16 22 -21 44 -22 115
l-2 87 63 -60 c35 -34 73 -66 84 -72z m337 -78 c7 -7 -14 -44 -25 -44 -5 0 -8
8 -8 18 0 27 18 41 33 26z"/>
<path d="M3348 3711 c-67 -22 -114 -49 -148 -87 l-25 -28 25 17 c50 34 121 68
168 80 27 6 49 16 51 22 4 16 -11 15 -71 -4z"/>
<path d="M1768 3129 c-156 -37 -404 -249 -473 -404 -26 -58 -43 -141 -27 -131
6 3 12 1 14 -6 3 -7 24 14 49 46 24 33 58 78 75 100 17 23 75 87 130 142 100
103 198 174 302 221 53 24 55 27 32 34 -33 9 -57 9 -102 -2z"/>
<path d="M1783 2678 c-55 -22 -173 -120 -160 -134 4 -4 20 5 36 20 17 16 40
35 53 42 38 22 122 62 141 68 9 3 17 10 17 16 0 15 -29 11 -87 -12z"/>
<path d="M4020 3299 c0 -5 5 -7 10 -4 6 3 10 8 10 11 0 2 -4 4 -10 4 -5 0 -10
-5 -10 -11z"/>
<path d="M3006 2235 c9 -14 25 -30 35 -36 32 -16 23 17 -10 40 -38 28 -45 26
-25 -4z"/>
<path d="M2917 2213 c-7 -11 25 -76 41 -81 6 -2 12 1 12 8 0 17 -47 83 -53 73z"/>
<path d="M3666 2148 c-13 -20 -20 -88 -9 -88 16 0 46 26 54 47 20 53 -16 85
-45 41z"/>
<path d="M3623 2022 c-3 -12 -9 -22 -14 -22 -4 0 -25 -26 -46 -57 -45 -68
-199 -225 -263 -268 -25 -16 -52 -36 -59 -44 -21 -19 -154 -80 -192 -86 -17
-3 -45 -13 -62 -22 -17 -8 -54 -18 -82 -22 -41 -5 -50 -9 -50 -26 0 -26 29
-31 69 -12 88 43 153 70 174 73 57 7 208 105 303 197 127 121 253 286 235 305
-4 3 -9 -4 -13 -16z"/>
</g>
</svg>
